<svg width="50" height="50" viewBox="0 0 50 50" fill="none" xmlns="http://www.w3.org/2000/svg">
<rect width="50" height="50" rx="4" fill="#DCEEFE"/>
<path d="M17 30C17 29.4477 17.4477 29 18 29H22C22.5523 29 23 29.4477 23 30V32C23 32.5523 22.5523 33 22 33H18C17.4477 33 17 32.5523 17 32V30ZM27 18C27 17.4477 27.4477 17 28 17H32C32.5523 17 33 17.4477 33 18V20C33 20.5523 32.5523 21 32 21H28C27.4477 21 27 20.5523 27 20V18ZM17 18C17 17.4477 17.4477 17 18 17H22C22.5523 17 23 17.4477 23 18V24C23 24.5523 22.5523 25 22 25H18C17.4477 25 17 24.5523 17 24V18ZM27 26C27 25.4477 27.4477 25 28 25H32C32.5523 25 33 25.4477 33 26V32C33 32.5523 32.5523 33 32 33H28C27.4477 33 27 32.5523 27 32V26Z" stroke="#424C5D" stroke-width="2" stroke-linecap="round" stroke-linejoin="round"/>
</svg>
