<svg width="40" height="40" viewBox="0 0 40 40" fill="none" xmlns="http://www.w3.org/2000/svg">
<circle cx="20" cy="20" r="20" fill="#F6EFAB"/>
<path d="M22.1548 16.6378C22.098 16.0649 21.8541 15.6198 21.4233 15.3026C20.9924 14.9853 20.4076 14.8267 19.669 14.8267C19.1671 14.8267 18.7433 14.8977 18.3977 15.0398C18.052 15.1771 17.7869 15.3688 17.6022 15.6151C17.4223 15.8613 17.3323 16.1406 17.3323 16.4531C17.3229 16.7135 17.3773 16.9408 17.4957 17.1349C17.6188 17.3291 17.7869 17.4972 18 17.6392C18.213 17.7765 18.4592 17.8972 18.7386 18.0014C19.0179 18.1008 19.3162 18.1861 19.6335 18.2571L20.9403 18.5696C21.5748 18.7116 22.1572 18.901 22.6875 19.1378C23.2178 19.3745 23.677 19.6657 24.0653 20.0114C24.4536 20.357 24.7542 20.7642 24.9673 21.2329C25.1851 21.7017 25.2964 22.2391 25.3011 22.8452C25.2964 23.7353 25.0691 24.5071 24.6193 25.1605C24.1742 25.8092 23.5303 26.3134 22.6875 26.6733C21.8494 27.0284 20.8385 27.206 19.6548 27.206C18.4805 27.206 17.4578 27.026 16.5866 26.6662C15.7201 26.3063 15.043 25.7737 14.5554 25.0682C14.0724 24.3579 13.8191 23.4796 13.7954 22.4332H16.7713C16.8044 22.9209 16.9441 23.3281 17.1903 23.6548C17.4412 23.9768 17.7751 24.2206 18.1917 24.3864C18.6131 24.5473 19.089 24.6278 19.6193 24.6278C20.1401 24.6278 20.5923 24.5521 20.9758 24.4006C21.3641 24.249 21.6647 24.0383 21.8778 23.7685C22.0909 23.4986 22.1974 23.1884 22.1974 22.8381C22.1974 22.5114 22.1003 22.2367 21.9062 22.0142C21.7168 21.7917 21.4375 21.6023 21.0681 21.446C20.7036 21.2898 20.2561 21.1477 19.7258 21.0199L18.142 20.6222C16.9157 20.3239 15.9474 19.8575 15.2372 19.223C14.5269 18.5885 14.1742 17.7339 14.1789 16.6591C14.1742 15.7784 14.4086 15.009 14.8821 14.3508C15.3603 13.6927 16.0161 13.179 16.8494 12.8097C17.6827 12.4403 18.6297 12.2557 19.6903 12.2557C20.7698 12.2557 21.7121 12.4403 22.517 12.8097C23.3267 13.179 23.9564 13.6927 24.4062 14.3508C24.856 15.009 25.088 15.7713 25.1022 16.6378H22.1548Z" fill="#FEBA09"/>
</svg>
