<svg width="51" height="50" viewBox="0 0 51 50" fill="none" xmlns="http://www.w3.org/2000/svg">
<path d="M24.9321 0H43.6879C47.1902 0 50.0013 2.76497 50.0013 6.31336V25.0691C50.0013 38.8479 38.8492 50 25.0704 50H24.9321C11.1533 50 0.00127163 38.8479 0.00127163 25.0691C-0.136977 11.2903 11.0151 0.138249 24.7939 0H24.9321Z" fill="#E67300"/>
<path d="M25.255 12.4885C28.02 12.4885 30.232 14.7005 30.232 17.4655C30.232 20.2305 28.02 22.4424 25.255 22.4424C22.49 22.4424 20.278 20.2305 20.278 17.4655C20.232 14.7005 22.49 12.4885 25.255 12.4885Z" fill="white"/>
<path d="M14.2412 24.0554L22.9048 32.719V37.5577H27.1444V32.719L35.808 24.0554H14.2412Z" fill="white"/>
</svg>
