<svg width="50" height="50" viewBox="0 0 50 50" fill="none" xmlns="http://www.w3.org/2000/svg">
<rect width="50" height="50" rx="4" fill="#DCEEFE"/>
<path d="M33.4898 20.52C33.4841 20.4936 33.4841 20.4663 33.4898 20.44C33.485 20.4169 33.485 20.393 33.4898 20.37V20.28L33.4298 20.13C33.4054 20.089 33.3751 20.052 33.3398 20.02L33.2498 19.94H33.1998L29.2598 17.45L25.5398 15.15C25.4538 15.0817 25.3553 15.0307 25.2498 15H25.1698C25.0804 14.985 24.9892 14.985 24.8998 15H24.7998C24.6837 15.0257 24.5723 15.0695 24.4698 15.13L16.9998 19.78L16.9098 19.85L16.8198 19.93L16.7198 20L16.6698 20.06L16.6098 20.21V20.3V20.36C16.6001 20.4263 16.6001 20.4936 16.6098 20.56V29.29C16.6095 29.4599 16.6525 29.6271 16.7347 29.7759C16.8169 29.9246 16.9357 30.0499 17.0798 30.14L24.5798 34.78L24.7298 34.84H24.8098C24.979 34.8936 25.1606 34.8936 25.3298 34.84H25.4098L25.5598 34.78L32.9998 30.21C33.1439 30.1199 33.2627 29.9946 33.345 29.8459C33.4272 29.6971 33.4702 29.5299 33.4698 29.36V20.63C33.4698 20.63 33.4898 20.56 33.4898 20.52ZM24.9998 17.17L26.7798 18.27L21.1898 21.73L19.3998 20.63L24.9998 17.17ZM23.9998 32.17L18.4998 28.81V22.42L23.9998 25.82V32.17ZM24.9998 24.06L23.0898 22.91L28.6798 19.44L30.5998 20.63L24.9998 24.06ZM31.4998 28.78L25.9998 32.2V25.82L31.4998 22.42V28.78Z" fill="#424C5D"/>
</svg>
