<svg width="40" height="40" viewBox="0 0 40 40" fill="none" xmlns="http://www.w3.org/2000/svg">
<circle cx="20" cy="20" r="20" fill="#F6EFAB"/>
<path d="M22.1543 16.6377C22.0975 16.0648 21.8536 15.6197 21.4228 15.3025C20.9919 14.9853 20.4071 14.8266 19.6685 14.8266C19.1666 14.8266 18.7428 14.8977 18.3972 15.0397C18.0516 15.177 17.7864 15.3688 17.6017 15.615C17.4218 15.8612 17.3319 16.1406 17.3319 16.4531C17.3224 16.7135 17.3768 16.9407 17.4952 17.1349C17.6183 17.329 17.7864 17.4971 17.9995 17.6391C18.2125 17.7764 18.4587 17.8972 18.7381 18.0014C19.0175 18.1008 19.3158 18.186 19.633 18.257L20.9398 18.5695C21.5743 18.7116 22.1567 18.901 22.687 19.1377C23.2173 19.3745 23.6766 19.6657 24.0648 20.0113C24.4531 20.3569 24.7537 20.7641 24.9668 21.2329C25.1846 21.7016 25.2959 22.239 25.3006 22.8451C25.2959 23.7353 25.0686 24.507 24.6188 25.1604C24.1737 25.8091 23.5298 26.3134 22.687 26.6732C21.8489 27.0283 20.838 27.2059 19.6543 27.2059C18.4801 27.2059 17.4573 27.026 16.5861 26.6661C15.7196 26.3063 15.0426 25.7736 14.5549 25.0681C14.0719 24.3579 13.8186 23.4796 13.7949 22.4332H16.7708C16.8039 22.9209 16.9436 23.3281 17.1898 23.6548C17.4408 23.9767 17.7746 24.2206 18.1912 24.3863C18.6126 24.5473 19.0885 24.6278 19.6188 24.6278C20.1396 24.6278 20.5918 24.552 20.9753 24.4005C21.3636 24.249 21.6642 24.0383 21.8773 23.7684C22.0904 23.4985 22.1969 23.1884 22.1969 22.838C22.1969 22.5113 22.0998 22.2367 21.9057 22.0141C21.7163 21.7916 21.437 21.6022 21.0676 21.446C20.7031 21.2897 20.2556 21.1477 19.7253 21.0198L18.1415 20.6221C16.9152 20.3238 15.9469 19.8574 15.2367 19.2229C14.5265 18.5885 14.1737 17.7338 14.1784 16.659C14.1737 15.7783 14.4081 15.0089 14.8816 14.3508C15.3598 13.6926 16.0156 13.1789 16.8489 12.8096C17.6822 12.4403 18.6292 12.2556 19.6898 12.2556C20.7694 12.2556 21.7116 12.4403 22.5165 12.8096C23.3262 13.1789 23.9559 13.6926 24.4057 14.3508C24.8555 15.0089 25.0875 15.7712 25.1017 16.6377H22.1543Z" fill="#FEBA09"/>
</svg>
