<svg width="50" height="50" viewBox="0 0 50 50" fill="none" xmlns="http://www.w3.org/2000/svg">
<rect width="50" height="50" rx="4" fill="#DCEEFE"/>
<path d="M28.7105 25.7101C29.6909 24.9388 30.4065 23.881 30.7577 22.6841C31.109 21.4871 31.0784 20.2104 30.6703 19.0316C30.2621 17.8528 29.4967 16.8305 28.4806 16.107C27.4644 15.3834 26.2479 14.9946 25.0005 14.9946C23.753 14.9946 22.5366 15.3834 21.5204 16.107C20.5042 16.8305 19.7388 17.8528 19.3307 19.0316C18.9226 20.2104 18.892 21.4871 19.2432 22.6841C19.5945 23.881 20.3101 24.9388 21.2905 25.7101C19.6106 26.3832 18.1448 27.4995 17.0494 28.94C15.954 30.3806 15.27 32.0914 15.0705 33.8901C15.056 34.0214 15.0676 34.1543 15.1045 34.2812C15.1414 34.408 15.203 34.5264 15.2856 34.6294C15.4525 34.8376 15.6953 34.971 15.9605 35.0001C16.2257 35.0293 16.4916 34.9519 16.6998 34.785C16.908 34.6181 17.0413 34.3753 17.0705 34.1101C17.2901 32.1553 18.2222 30.3499 19.6887 29.0389C21.1552 27.7279 23.0534 27.0032 25.0205 27.0032C26.9876 27.0032 28.8857 27.7279 30.3523 29.0389C31.8188 30.3499 32.7509 32.1553 32.9705 34.1101C32.9977 34.3558 33.1149 34.5828 33.2996 34.7471C33.4843 34.9115 33.7233 35.0016 33.9705 35.0001H34.0805C34.3426 34.97 34.5822 34.8374 34.747 34.6314C34.9119 34.4253 34.9886 34.1625 34.9605 33.9001C34.76 32.0963 34.0724 30.3811 32.9713 28.9383C31.8703 27.4955 30.3974 26.3796 28.7105 25.7101V25.7101ZM25.0005 25.0001C24.2094 25.0001 23.436 24.7655 22.7782 24.326C22.1204 23.8865 21.6077 23.2618 21.305 22.5309C21.0022 21.8 20.923 20.9957 21.0773 20.2198C21.2317 19.4438 21.6126 18.7311 22.1721 18.1717C22.7315 17.6123 23.4442 17.2313 24.2201 17.077C24.996 16.9226 25.8003 17.0019 26.5312 17.3046C27.2621 17.6074 27.8868 18.12 28.3264 18.7778C28.7659 19.4356 29.0005 20.209 29.0005 21.0001C29.0005 22.061 28.5791 23.0784 27.8289 23.8286C27.0788 24.5787 26.0614 25.0001 25.0005 25.0001Z" fill="#424C5D"/>
</svg>
