<svg width="40" height="40" viewBox="0 0 40 40" fill="none" xmlns="http://www.w3.org/2000/svg">
<circle cx="20" cy="20" r="20" fill="#F6EFAB"/>
<path d="M22.1548 16.6377C22.098 16.0648 21.8541 15.6197 21.4233 15.3025C20.9924 14.9853 20.4076 14.8266 19.669 14.8266C19.1671 14.8266 18.7433 14.8977 18.3977 15.0397C18.052 15.177 17.7869 15.3688 17.6022 15.615C17.4223 15.8612 17.3323 16.1406 17.3323 16.4531C17.3229 16.7135 17.3773 16.9407 17.4957 17.1349C17.6188 17.329 17.7869 17.4971 18 17.6391C18.213 17.7764 18.4592 17.8972 18.7386 18.0014C19.0179 18.1008 19.3162 18.186 19.6335 18.257L20.9403 18.5695C21.5748 18.7116 22.1572 18.901 22.6875 19.1377C23.2178 19.3745 23.677 19.6657 24.0653 20.0113C24.4536 20.3569 24.7542 20.7641 24.9673 21.2329C25.1851 21.7016 25.2964 22.239 25.3011 22.8451C25.2964 23.7353 25.0691 24.507 24.6193 25.1604C24.1742 25.8091 23.5303 26.3134 22.6875 26.6732C21.8494 27.0283 20.8385 27.2059 19.6548 27.2059C18.4805 27.2059 17.4578 27.026 16.5866 26.6661C15.7201 26.3063 15.043 25.7736 14.5554 25.0681C14.0724 24.3579 13.8191 23.4796 13.7954 22.4332H16.7713C16.8044 22.9209 16.9441 23.3281 17.1903 23.6548C17.4412 23.9767 17.7751 24.2206 18.1917 24.3863C18.6131 24.5473 19.089 24.6278 19.6193 24.6278C20.1401 24.6278 20.5923 24.552 20.9758 24.4005C21.3641 24.249 21.6647 24.0383 21.8778 23.7684C22.0909 23.4985 22.1974 23.1884 22.1974 22.838C22.1974 22.5113 22.1003 22.2367 21.9062 22.0141C21.7168 21.7916 21.4375 21.6022 21.0681 21.446C20.7036 21.2897 20.2561 21.1477 19.7258 21.0198L18.142 20.6221C16.9157 20.3238 15.9474 19.8574 15.2372 19.2229C14.5269 18.5885 14.1742 17.7338 14.1789 16.659C14.1742 15.7783 14.4086 15.0089 14.8821 14.3508C15.3603 13.6926 16.0161 13.1789 16.8494 12.8096C17.6827 12.4403 18.6297 12.2556 19.6903 12.2556C20.7698 12.2556 21.7121 12.4403 22.517 12.8096C23.3267 13.1789 23.9564 13.6926 24.4062 14.3508C24.856 15.0089 25.088 15.7712 25.1022 16.6377H22.1548Z" fill="#FEBA09"/>
</svg>
