<svg width="14" height="14" viewBox="0 0 14 14" fill="none" xmlns="http://www.w3.org/2000/svg">
<path d="M8.20859 6.99929L13.7009 1.49891C13.865 1.33425 13.9573 1.11091 13.9573 0.878042C13.9573 0.645171 13.865 0.421837 13.7009 0.257172C13.5367 0.0925077 13.3141 0 13.0819 0C12.8497 0 12.6271 0.0925077 12.4629 0.257172L6.97937 5.76629L1.49581 0.257172C1.33165 0.0925077 1.109 2.06753e-07 0.876844 2.08488e-07C0.644685 2.10223e-07 0.422035 0.0925077 0.257874 0.257172C0.0937126 0.421837 0.00148801 0.645171 0.001488 0.878042C0.001488 1.11091 0.0937126 1.33425 0.257874 1.49891L5.75015 6.99929L0.257874 12.4997C0.176162 12.581 0.111306 12.6777 0.0670468 12.7842C0.0227872 12.8908 0 13.0051 0 13.1205C0 13.236 0.0227872 13.3503 0.0670468 13.4568C0.111306 13.5634 0.176162 13.6601 0.257874 13.7414C0.338918 13.8234 0.435339 13.8884 0.541574 13.9328C0.64781 13.9772 0.761758 14.0001 0.876844 14.0001C0.991931 14.0001 1.10588 13.9772 1.21211 13.9328C1.31835 13.8884 1.41477 13.8234 1.49581 13.7414L6.97937 8.23228L12.4629 13.7414C12.544 13.8234 12.6404 13.8884 12.7466 13.9328C12.8529 13.9772 12.9668 14.0001 13.0819 14.0001C13.197 14.0001 13.3109 13.9772 13.4172 13.9328C13.5234 13.8884 13.6198 13.8234 13.7009 13.7414C13.7826 13.6601 13.8474 13.5634 13.8917 13.4568C13.936 13.3503 13.9587 13.236 13.9587 13.1205C13.9587 13.0051 13.936 12.8908 13.8917 12.7842C13.8474 12.6777 13.7826 12.581 13.7009 12.4997L8.20859 6.99929Z" fill="#424C5D"/>
</svg>
