<svg width="50" height="50" viewBox="0 0 50 50" fill="none" xmlns="http://www.w3.org/2000/svg">
<rect width="50" height="50" rx="4" fill="#DCEEFE"/>
<path d="M24.9996 15C23.06 15.0037 21.1634 15.5713 19.5408 16.6337C17.9181 17.6962 16.6395 19.2075 15.8605 20.9838C15.0815 22.76 14.8359 24.7244 15.1536 26.6378C15.4712 28.5511 16.3384 30.3308 17.6496 31.76V31.76C18.586 32.775 19.7225 33.5851 20.9875 34.1392C22.2525 34.6933 23.6185 34.9793 24.9996 34.9793C26.3806 34.9793 27.7466 34.6933 29.0116 34.1392C30.2766 33.5851 31.4131 32.775 32.3496 31.76V31.76C33.6607 30.3308 34.5279 28.5511 34.8455 26.6378C35.1632 24.7244 34.9176 22.76 34.1386 20.9838C33.3597 19.2075 32.081 17.6962 30.4583 16.6337C28.8357 15.5713 26.9391 15.0037 24.9996 15V15ZM24.9996 33C22.928 32.9969 20.9385 32.1903 19.4496 30.75C19.9016 29.6495 20.6706 28.7083 21.6588 28.0459C22.647 27.3835 23.8099 27.0298 24.9996 27.0298C26.1893 27.0298 27.3521 27.3835 28.3403 28.0459C29.3285 28.7083 30.0975 29.6495 30.5496 30.75C29.0606 32.1903 27.0711 32.9969 24.9996 33ZM22.9996 23C22.9996 22.6044 23.1169 22.2178 23.3366 21.8889C23.5564 21.56 23.8687 21.3036 24.2342 21.1522C24.5996 21.0009 25.0018 20.9613 25.3897 21.0384C25.7777 21.1156 26.1341 21.3061 26.4138 21.5858C26.6935 21.8655 26.884 22.2219 26.9611 22.6098C27.0383 22.9978 26.9987 23.3999 26.8473 23.7654C26.6959 24.1308 26.4396 24.4432 26.1107 24.6629C25.7818 24.8827 25.3951 25 24.9996 25C24.4691 25 23.9604 24.7893 23.5853 24.4142C23.2103 24.0391 22.9996 23.5304 22.9996 23ZM31.9096 29C31.0161 27.4718 29.641 26.283 27.9996 25.62C28.5087 25.0427 28.8405 24.3307 28.955 23.5694C29.0696 22.8082 28.962 22.0301 28.6453 21.3285C28.3286 20.6269 27.8161 20.0316 27.1695 19.614C26.5228 19.1964 25.7694 18.9742 24.9996 18.9742C24.2298 18.9742 23.4763 19.1964 22.8297 19.614C22.183 20.0316 21.6705 20.6269 21.3538 21.3285C21.0371 22.0301 20.9295 22.8082 21.0441 23.5694C21.1586 24.3307 21.4904 25.0427 21.9996 25.62C20.3582 26.283 18.983 27.4718 18.0896 29C17.3775 27.7871 17.0013 26.4065 16.9996 25C16.9996 22.8783 17.8424 20.8434 19.3427 19.3431C20.843 17.8429 22.8778 17 24.9996 17C27.1213 17 29.1561 17.8429 30.6564 19.3431C32.1567 20.8434 32.9996 22.8783 32.9996 25C32.9978 26.4065 32.6216 27.7871 31.9096 29V29Z" fill="#424C5D"/>
</svg>
